<?xml version="1.0" encoding="UTF-8"?>
<svg id="Layer_2" data-name="Layer 2" xmlns="http://www.w3.org/2000/svg" xmlns:xlink="http://www.w3.org/1999/xlink" viewBox="0 0 3391.4 606.28">
  <defs>
    <style>
      .cls-1 {
        fill: #016430;
      }

      .cls-2 {
        fill: url(#linear-gradient-2);
      }

      .cls-3 {
        fill: #01b459;
      }

      .cls-4 {
        fill: url(#linear-gradient);
      }
    </style>
    <linearGradient id="linear-gradient" x1="0" y1="249.69" x2="435.47" y2="249.69" gradientUnits="userSpaceOnUse">
      <stop offset="0" stop-color="#016e33"/>
      <stop offset="1" stop-color="#037b38"/>
    </linearGradient>
    <linearGradient id="linear-gradient-2" x1="266.24" y1="277.66" x2="349.97" y2="181.9" gradientUnits="userSpaceOnUse">
      <stop offset="0" stop-color="#e49e0a"/>
      <stop offset="1" stop-color="#f4ca07"/>
    </linearGradient>
  </defs>
  <g id="Layer_1-2" data-name="Layer 1">
    <path class="cls-4" d="M246.44,478.3v-29.55h159.33V59.42l-181.74,104.14c-10.95,4.54-20.1-6.56-29.84-10.12L29.29,59.42v389.32h159.33v-120.78c-44.4-8.17-79.27-41.91-85.73-87.08-1.37-9.6-2.62-22.73,1.57-31.13h24.41c5.98,0,22.47,6.02,28.49,8.77,91.88,41.98,52.02,175.76,60.88,255.34.28,1.32-.93,4.43-1.99,4.43H13.23c-2.84,0-13.38-8.92-12.24-13.46C.39,332.94,2.37,200.79,0,69.06,3.77,50.21-8.11,14.48,24.13,22.83l193.49,109.83,5.76-1.87L410.04,23.22c13.03-6.81,25.43,3.73,25.33,17.53v418.98c1.14,6.2-7.84,18.58-13.54,18.58h-175.39Z"/>
    <path class="cls-1" d="M823.52,166.44c15.71-30.41,60.16-51.36,93.83-54.22,89.57-7.61,150.11,51.31,157.6,138.61,4.04,47.09,5.43,151.53.12,197.34-.69,5.95-2.78,14.11-7.8,17.67-6.93,4.91-66.86,4.81-73.67,0-6.31-4.46-7.23-13.7-7.87-20.77-5.46-60.08,8.98-139.62-.6-196.71-12.09-72.04-121.58-71.47-134.65.68-10.65,58.82,5.77,138.66-1.38,199.12-1.66,14.03-6.59,19.02-20.69,20.69-14.4,1.7-60.87,3.79-66.82-9.68l-2.43-207.62c-6.06-60.93-88.12-77.5-121.56-30.79-32.14,44.91-12.69,168.95-17.58,227.48-1.48,17.64-2.89,19.21-20.68,20.68-23.86,1.98-62.83,7.81-65.58-20.62-9.42-97.45,7.57-209.98.04-309.06-.49-26.7,78.31-20.82,84.5-7.81,3.53,7.42-.44,15.76,3.16,22.27,53.05-65.38,153.58-49.65,202.05,12.75Z"/>
    <path class="cls-3" d="M2605.81,457.64c-4.27,15.53-60.47,13.27-73.48,9.74-14.56-3.95-6.39-26.48-10.84-36.78-88.23,92.76-241.99,42.88-278.32-74.97-54.32-176.21,137.23-324.29,279.9-195.56V8.9c0-5.69,12.6-7.68,17.31-8.15,10.28-1.03,65.43-2.7,65.43,8.15v448.74ZM2493.29,365.81c47.12-51.45,30.39-138.09-34.91-164.93-90.28-37.11-166.82,58.28-126.86,142.77,28.65,60.58,117.02,71.01,161.76,22.17Z"/>
    <path class="cls-1" d="M1415.5,156.89c-.71-13.66-1.48-30.54,15.04-34.33,14.09-3.23,65.59-5.12,70.25,11.13-3.6,38.47,8.49,319.49-3.26,331.15-5.25,5.21-61.69,5.8-70.21,3.3-12.4-3.64-7.16-17.72-8.57-26.43-2.55-15.78-11.93.59-19.39,6.12-78.77,58.47-193.87,29.7-242.14-53.3-102.57-176.36,95.94-374.03,258.29-237.64ZM1316.17,192.79c-124.49,1.82-131.45,188.83-13.27,202.45,146.27,16.86,146.28-204.39,13.27-202.45Z"/>
    <path class="cls-3" d="M2818.38,113.27c252.17-25.64,279.02,347.3,37.21,365.01s-269.13-341.43-37.21-365.01ZM2827.88,192.81c-125.13,13.87-112.18,213.37,18.12,205.93,134.04-7.65,121.12-221.37-18.12-205.93Z"/>
    <path class="cls-1" d="M2029.73,360.57l85.89-227.62c10.39-14.67,57.58-13.55,75.03-11.22,11.91,1.59,18.93,10.89,16.02,22.43-56.04,121.08-96.9,254.57-154.07,374.51-22.44,47.09-45.84,79.38-101.69,86.08-14.69,1.76-51.01,5.24-56.59-11.65-2.49-7.56-2.9-50.85-.73-58.4,5.14-17.86,33.48-10.02,47.92-12.54,26.48-4.62,33.12-32.88,40.49-54.72l-136.96-318.34c-4.46-8.75-4.45-18.75,4.73-24.22,9.69-5.78,75.85-7.95,84.6,8.07l87.42,218.1,7.93,9.53Z"/>
    <path class="cls-2" d="M331.89,177.63h21.84c.23,0,3.21,2.99,3.21,3.21v29.55c0,4.04-4.79,20.99-6.38,25.74-16.65,49.73-62.33,77.78-113.79,77.73-1.83,0-7.03-1.85-7.03-3.25v-26.98c0-49.09,53.86-101.79,102.15-106Z"/>
    <path class="cls-3" d="M3322.78,229.12c-3.44-2.85-5.72-9.1-12.59-14.41-64.47-49.78-156.82-14.07-165.63,68.77-9.26,87.01,81.73,145.36,156.05,98.79,12.16-7.62,22.7-25.36,35.66-25.11,7.27.14,54.31,29.67,55.04,37.48,2.69,28.64-64.36,67.8-89.3,74.96-134.59,38.6-253.29-56.78-241.22-196.66,11.2-129.82,161.44-200.68,272.81-138.91,15.39,8.54,54.59,40.17,56.82,57.5,1.49,11.58-47.14,41.74-57.18,41.62-3.58-.04-7.68-1.73-10.46-4.04Z"/>
    <path class="cls-1" d="M1670.17,156.89c15.3-12.08,26.8-27.94,45.47-35.65,15.5-6.4,61.24-16.06,72.54-1.24,3.97,5.2,4.7,67.73,2.25,76.03-4.54,15.34-32.3,4.7-45.58,5.26-42.23,1.78-70.96,34.23-74.66,74.99-5.25,57.8,4.36,122.16-.73,180.68-2.67,5.66-7.44,10.55-13.73,11.73-7.61,1.43-56.56,1.38-62.95-.53-7.12-2.13-11.68-12.94-11.83-20l.75-311.28c2.91-20.63,58.61-17.72,73.43-14.32,16.51,3.79,15.74,20.66,15.04,34.33Z"/>
  </g>
</svg>