<?xml version="1.0" encoding="UTF-8"?>
<svg id="Layer_1" xmlns="http://www.w3.org/2000/svg" version="1.1" viewBox="0 0 845.77 191.55">
  <!-- Generator: Adobe Illustrator 30.0.0, SVG Export Plug-In . SVG Version: 2.1.1 Build 123)  -->
  <defs>
    <style>
      .st0, .st1 {
        fill: #552c85;
      }

      .st0, .st2 {
        font-family: NeueHaasDisplay-Roman, 'Neue Haas Grotesk Display Pro';
        font-size: 170.85px;
      }

      .st3 {
        fill: #fff;
      }

      .st4, .st2 {
        fill: #188a44;
      }
    </style>
  </defs>
  <circle class="st1" cx="-1590.6" cy="550.58" r="95.77"/>
  <text class="st2" transform="translate(-1482.96 172.6)"><tspan x="0" y="0">marydoc</tspan></text>
  <circle class="st4" cx="-1610.08" cy="59.01" r="16.64"/>
  <circle class="st1" cx="-1568.47" cy="59.01" r="16.64"/>
  <g>
    <path class="st4" d="M-1585.81,91.45c-1.44-1.15-3-2.15-4.68-3.02-5.34-2.78-11.87-4.16-19.59-4.16-.99,0-1.96.02-2.91.08-3.98.19-7.64.8-10.95,1.84-3.89,1.2-7.32,2.97-10.29,5.32-6.12,4.83-9.19,12.23-9.19,22.2v58.89h10.95v-57.79c0-8.78,2.84-14.83,8.53-18.15,2.91-1.69,6.56-2.68,10.95-2.95.82-.05,1.67-.07,2.54-.07,4.4,0,8.17.6,11.3,1.8,3.76,1.42,6.6,3.72,8.5,6.87,1.91-3.27,4.78-5.61,8.62-7.02-1.09-1.43-2.35-2.71-3.78-3.84Z"/>
    <path class="st4" d="M-1576.74,113.71v47.31c0,6.03-4.93,11.21-10.95,11.5h0c-.95.06-1.92.08-2.91.08s-1.96-.02-2.91-.08h0c-6.13-.28-10.95-5.33-10.95-11.47v-47.34c0-.99.03-1.96.1-2.9.39-6.25,2.13-11.37,5.21-15.37,3.76,1.42,6.6,3.72,8.5,6.87-1.91,3.25-2.86,7.42-2.86,12.5v45.85c0,1.41,1.13,2.55,2.53,2.57.24,0,.49,0,.74,0h0c1.4,0,2.55-1.15,2.55-2.55v-45.87c0-5.08-.98-9.25-2.96-12.5,1.91-3.27,4.78-5.61,8.62-7.02,3.07,4.01,4.8,9.19,5.19,15.52.07.94.1,1.91.1,2.9Z"/>
  </g>
  <path class="st1" d="M-1546.85,91.45c-6.05-4.79-14.14-7.18-24.28-7.18-7.56,0-14.01,1.39-19.36,4.16-1.71.88-3.3,1.91-4.79,3.08-1.47,1.16-2.76,2.47-3.87,3.93,3.76,1.42,6.6,3.72,8.5,6.87,1.91-3.27,4.78-5.61,8.62-7.02,2.95-1.1,6.46-1.65,10.54-1.65,1.13,0,2.22.04,3.27.12,3.93.29,7.26,1.14,10,2.55,6.32,3.22,9.48,9.39,9.48,18.5v57.79h10.95v-58.89c0-10.05-3.02-17.48-9.06-22.26Z"/>
  <text class="st2" transform="translate(-1482.96 354.89)"><tspan x="0" y="0">marydoc</tspan></text>
  <text class="st0" transform="translate(-1266.58 597.05)"><tspan x="0" y="0">marydoc</tspan></text>
  <g>
    <path class="st4" d="M-1257.18,834.15v-88.33h13.84v12.64h.34c2.85-4.44,6.55-8,11.11-10.68,4.55-2.67,9.51-4.01,14.86-4.01,11.5,0,19.19,5.24,23.06,15.72h.34c2.73-4.9,6.55-8.74,11.45-11.53,4.9-2.79,10.08-4.19,15.55-4.19,8.09,0,14.58,2.48,19.48,7.43,4.9,4.96,7.35,11.93,7.35,20.93v62.02h-13.84v-61.33c0-5.35-1.57-9.59-4.7-12.73-3.13-3.13-6.98-4.7-11.53-4.7-5.81,0-10.88,2.28-15.21,6.83-4.33,4.56-6.49,10.2-6.49,16.91v55.01h-13.84v-61.33c0-5.35-1.4-9.59-4.19-12.73-2.79-3.13-6.47-4.7-11.02-4.7-5.7,0-10.91,2.31-15.63,6.92-4.73,4.61-7.09,10.22-7.09,16.83v55.01h-13.84Z"/>
    <path class="st4" d="M-1052.16,835.01c-8.77,0-13.84-4.38-15.21-13.16h-.17c-7.29,9.34-17.08,14.01-29.39,14.01-8.77,0-15.95-2.11-21.53-6.32-5.58-4.21-8.37-10.31-8.37-18.28,0-4.1.65-7.66,1.96-10.68,1.31-3.02,2.99-5.47,5.04-7.35,2.05-1.88,4.87-3.53,8.46-4.96,3.59-1.42,7.03-2.5,10.34-3.25,3.3-.74,7.52-1.51,12.64-2.31,3.3-.45,5.66-.82,7.09-1.11,1.42-.28,3.27-.74,5.55-1.37,2.28-.62,3.87-1.34,4.78-2.14.91-.8,1.76-1.88,2.56-3.25.79-1.37,1.2-2.96,1.2-4.78,0-5.01-1.74-8.85-5.21-11.53-3.48-2.67-8.34-4.01-14.61-4.01-14.24,0-21.58,6.49-22.04,19.48h-13.33c.23-9,3.33-16.23,9.31-21.7,5.98-5.47,14.61-8.2,25.88-8.2,21.75,0,32.63,9.34,32.63,28.02v42.03c0,3.87.65,6.61,1.96,8.2,1.31,1.6,3.79,1.99,7.43,1.2h.51v10.08c-2.28.91-4.78,1.37-7.52,1.37ZM-1093.85,825.27c8.54,0,15.15-2.48,19.82-7.43,4.67-4.96,7-10.39,7-16.32v-15.04c-4.21,2.62-10.93,4.78-20.16,6.49-3.42.68-6.09,1.23-8.03,1.62-1.94.4-4.16,1.08-6.66,2.05-2.51.97-4.39,2.02-5.64,3.16-1.25,1.14-2.34,2.65-3.25,4.53-.91,1.88-1.37,4.07-1.37,6.58,0,9.57,6.09,14.35,18.28,14.35Z"/>
    <path class="st4" d="M-1020.56,745.82v14.69h.34c2.85-4.67,6.55-8.46,11.11-11.36,4.55-2.9,9.62-4.36,15.21-4.36,2.05,0,3.93.34,5.64,1.02v13.33h-.51c-1.71-.57-3.76-.85-6.15-.85-7.06,0-13.1,2.48-18.11,7.43-5.01,4.95-7.52,11.42-7.52,19.39v49.03h-13.84v-88.33h13.84Z"/>
    <path class="st4" d="M-964.52,863.37c-5.24,0-9.4-.63-12.47-1.88v-12.3h.68c2.28,1.25,5.41,1.88,9.4,1.88,3.08,0,5.64-.77,7.69-2.31,2.05-1.54,3.87-4.36,5.47-8.46l3.42-8.71-34.51-85.77h15.03l20.84,55.01,5.98,17.26h.34c2.05-6.6,3.99-12.36,5.81-17.26l20.16-55.01h14.69l-37.76,95.5c-3.42,8.65-6.95,14.49-10.59,17.51-3.65,3.02-8.37,4.53-14.18,4.53Z"/>
    <path class="st4" d="M-859.79,836.72c-12.07,0-21.61-4.19-28.62-12.56-7.01-8.37-10.51-19.67-10.51-33.91s3.64-25.68,10.93-34c7.29-8.31,16.57-12.47,27.85-12.47,11.96,0,21.19,4.84,27.68,14.52h.34v-46.3h13.84v122.16h-13.84v-10.76h-.34c-6.95,8.88-16.06,13.33-27.34,13.33ZM-859.28,825.1c9.45,0,16.49-3.13,21.1-9.4,4.61-6.26,6.92-14.69,6.92-25.29s-2.48-18.91-7.43-25.29c-4.96-6.38-11.88-9.57-20.76-9.57-8.09,0-14.32,3.22-18.71,9.65-4.38,6.44-6.58,14.84-6.58,25.2s2.19,18.74,6.58,25.12c4.38,6.38,10.68,9.57,18.88,9.57Z"/>
    <path class="st4" d="M-730.8,823.22c-7.75,8.88-18.05,13.33-30.92,13.33s-23.21-4.44-31.01-13.33c-7.8-8.88-11.7-19.93-11.7-33.14s3.9-24.26,11.7-33.14c7.8-8.88,18.14-13.33,31.01-13.33s23.18,4.44,30.92,13.33c7.74,8.88,11.62,19.93,11.62,33.14s-3.87,24.26-11.62,33.14ZM-782.82,815.1c4.95,6.55,11.99,9.82,21.1,9.82s16.12-3.27,21.01-9.82c4.9-6.55,7.35-14.89,7.35-25.03s-2.48-18.65-7.43-25.2c-4.95-6.55-11.93-9.82-20.93-9.82s-16.15,3.3-21.1,9.91c-4.96,6.61-7.43,14.98-7.43,25.11s2.48,18.48,7.43,25.03Z"/>
    <path class="st4" d="M-667.59,836.55c-12.87,0-23.21-4.44-31.01-13.33-7.8-8.88-11.7-19.93-11.7-33.14s3.9-24.26,11.7-33.14c7.8-8.88,18.14-13.33,31.01-13.33,10.36,0,18.85,2.76,25.46,8.29,6.6,5.53,10.7,13.01,12.3,22.47h-14.01c-1.03-6.04-3.59-10.76-7.69-14.18-4.1-3.42-9.46-5.12-16.06-5.12-9.11,0-16.15,3.3-21.1,9.91-4.96,6.61-7.43,14.98-7.43,25.11s2.48,18.48,7.43,25.03c4.95,6.55,11.99,9.82,21.1,9.82,7.06,0,12.7-1.91,16.91-5.72,4.21-3.81,6.6-9.2,7.18-16.15h13.67c-.91,10.59-4.67,18.82-11.28,24.69-6.61,5.87-15.43,8.8-26.48,8.8Z"/>
  </g>
  <circle class="st4" cx="-1610.08" cy="241.31" r="16.64"/>
  <circle class="st1" cx="-1568.47" cy="241.31" r="16.64"/>
  <g>
    <path class="st4" d="M-1585.81,273.74c-1.44-1.15-3-2.15-4.68-3.02-5.34-2.78-11.87-4.16-19.59-4.16-.99,0-1.96.02-2.91.08-3.98.19-7.64.8-10.95,1.84-3.89,1.2-7.32,2.97-10.29,5.32-6.12,4.83-9.19,12.23-9.19,22.2v58.89h10.95v-57.79c0-8.78,2.84-14.83,8.53-18.15,2.91-1.69,6.56-2.68,10.95-2.95.82-.05,1.67-.07,2.54-.07,4.4,0,8.17.6,11.3,1.8,3.76,1.42,6.6,3.72,8.5,6.87,1.91-3.27,4.78-5.61,8.62-7.02-1.09-1.43-2.35-2.71-3.78-3.84Z"/>
    <path class="st4" d="M-1576.74,296v47.31c0,6.03-4.93,11.21-10.95,11.5h0c-.95.06-1.92.08-2.91.08s-1.96-.02-2.91-.08h0c-6.13-.28-10.95-5.33-10.95-11.47v-47.34c0-.99.03-1.96.1-2.9.39-6.25,2.13-11.37,5.21-15.37,3.76,1.42,6.6,3.72,8.5,6.87-1.91,3.25-2.86,7.42-2.86,12.5v45.85c0,1.41,1.13,2.55,2.53,2.57.24,0,.49,0,.74,0h0c1.4,0,2.55-1.15,2.55-2.55v-45.87c0-5.08-.98-9.25-2.96-12.5,1.91-3.27,4.78-5.61,8.62-7.02,3.07,4.01,4.8,9.19,5.19,15.52.07.94.1,1.91.1,2.9Z"/>
  </g>
  <path class="st4" d="M-1546.85,273.74c-6.05-4.79-14.14-7.18-24.28-7.18-7.56,0-14.01,1.39-19.36,4.16-1.71.88-3.3,1.91-4.79,3.08-1.47,1.16-2.76,2.47-3.87,3.93,3.76,1.42,6.6,3.72,8.5,6.87,1.91-3.27,4.78-5.61,8.62-7.02,2.95-1.1,6.46-1.65,10.54-1.65,1.13,0,2.22.04,3.27.12,3.93.29,7.26,1.14,10,2.55,6.32,3.22,9.48,9.39,9.48,18.5v57.79h10.95v-58.89c0-10.05-3.02-17.48-9.06-22.26Z"/>
  <circle class="st4" cx="-1610.08" cy="493.31" r="16.64"/>
  <circle class="st4" cx="-1568.47" cy="493.31" r="16.64"/>
  <g>
    <path class="st4" d="M-1585.81,525.74c-1.44-1.15-3-2.15-4.68-3.02-5.34-2.78-11.87-4.16-19.59-4.16-.99,0-1.96.02-2.91.08-3.98.19-7.64.8-10.95,1.84-3.89,1.2-7.32,2.97-10.29,5.32-6.12,4.83-9.19,12.23-9.19,22.2v58.89h10.95v-57.79c0-8.78,2.84-14.83,8.53-18.15,2.91-1.69,6.56-2.68,10.95-2.95.82-.05,1.67-.07,2.54-.07,4.4,0,8.17.6,11.3,1.8,3.76,1.42,6.6,3.72,8.5,6.87,1.91-3.27,4.78-5.61,8.62-7.02-1.09-1.43-2.35-2.71-3.78-3.84Z"/>
    <path class="st4" d="M-1576.74,548v47.31c0,6.03-4.93,11.21-10.95,11.5h0c-.95.06-1.92.08-2.91.08s-1.96-.02-2.91-.08h0c-6.13-.28-10.95-5.33-10.95-11.47v-47.34c0-.99.03-1.96.1-2.9.39-6.25,2.13-11.37,5.21-15.37,3.76,1.42,6.6,3.72,8.5,6.87-1.91,3.25-2.86,7.42-2.86,12.5v45.85c0,1.41,1.13,2.55,2.53,2.57.24,0,.49,0,.74,0h0c1.4,0,2.55-1.15,2.55-2.55v-45.87c0-5.08-.98-9.25-2.96-12.5,1.91-3.27,4.78-5.61,8.62-7.02,3.07,4.01,4.8,9.19,5.19,15.52.07.94.1,1.91.1,2.9Z"/>
  </g>
  <path class="st4" d="M-1546.85,525.74c-6.05-4.79-14.14-7.18-24.28-7.18-7.56,0-14.01,1.39-19.36,4.16-1.71.88-3.3,1.91-4.79,3.08-1.47,1.16-2.76,2.47-3.87,3.93,3.76,1.42,6.6,3.72,8.5,6.87,1.91-3.27,4.78-5.61,8.62-7.02,2.95-1.1,6.46-1.65,10.54-1.65,1.13,0,2.22.04,3.27.12,3.93.29,7.26,1.14,10,2.55,6.32,3.22,9.48,9.39,9.48,18.5v57.79h10.95v-58.89c0-10.05-3.02-17.48-9.06-22.26Z"/>
  <circle class="st1" cx="-1379.82" cy="550.58" r="95.77"/>
  <g>
    <circle class="st3" cx="-1399.3" cy="502.1" r="16.64"/>
    <circle class="st3" cx="-1357.69" cy="502.1" r="16.64"/>
    <g>
      <path class="st3" d="M-1375.03,534.54c-1.44-1.15-3-2.15-4.68-3.02-5.34-2.78-11.87-4.16-19.59-4.16-.99,0-1.96.02-2.91.08-3.98.19-7.64.8-10.95,1.84-3.89,1.2-7.32,2.97-10.29,5.32-6.12,4.83-9.19,12.23-9.19,22.2v58.89h10.95v-57.79c0-8.78,2.84-14.83,8.53-18.15,2.91-1.69,6.56-2.68,10.95-2.95.82-.05,1.67-.07,2.54-.07,4.4,0,8.17.6,11.3,1.8,3.76,1.42,6.6,3.72,8.5,6.87,1.91-3.27,4.78-5.61,8.62-7.02-1.09-1.43-2.35-2.71-3.78-3.84Z"/>
      <path class="st3" d="M-1365.96,556.8v47.31c0,6.03-4.93,11.21-10.95,11.5h0c-.95.06-1.92.08-2.91.08s-1.96-.02-2.91-.08h0c-6.13-.28-10.95-5.33-10.95-11.47v-47.34c0-.99.03-1.96.1-2.9.39-6.25,2.13-11.37,5.21-15.37,3.76,1.42,6.6,3.72,8.5,6.87-1.91,3.25-2.86,7.42-2.86,12.5v45.85c0,1.41,1.13,2.55,2.53,2.57.24,0,.49,0,.74,0h0c1.4,0,2.55-1.15,2.55-2.55v-45.87c0-5.08-.98-9.25-2.96-12.5,1.91-3.27,4.78-5.61,8.62-7.02,3.07,4.01,4.8,9.19,5.19,15.52.07.94.1,1.91.1,2.9Z"/>
    </g>
    <path class="st3" d="M-1336.07,534.54c-6.05-4.79-14.14-7.18-24.28-7.18-7.56,0-14.01,1.39-19.36,4.16-1.71.88-3.3,1.91-4.79,3.08-1.47,1.16-2.76,2.47-3.87,3.93,3.76,1.42,6.6,3.72,8.5,6.87,1.91-3.27,4.78-5.61,8.62-7.02,2.95-1.1,6.46-1.65,10.54-1.65,1.13,0,2.22.04,3.27.12,3.93.29,7.26,1.14,10,2.55,6.32,3.22,9.48,9.39,9.48,18.5v57.79h10.95v-58.89c0-10.05-3.02-17.48-9.06-22.26Z"/>
  </g>
  <circle class="st4" cx="-1379.82" cy="787.68" r="95.77"/>
  <g>
    <circle class="st3" cx="-1399.3" cy="739.21" r="16.64"/>
    <circle class="st3" cx="-1357.69" cy="739.21" r="16.64"/>
    <g>
      <path class="st3" d="M-1375.03,771.64c-1.44-1.15-3-2.15-4.68-3.02-5.34-2.78-11.87-4.16-19.59-4.16-.99,0-1.96.02-2.91.08-3.98.19-7.64.8-10.95,1.84-3.89,1.2-7.32,2.97-10.29,5.32-6.12,4.83-9.19,12.23-9.19,22.2v58.89h10.95v-57.79c0-8.78,2.84-14.83,8.53-18.15,2.91-1.69,6.56-2.68,10.95-2.95.82-.05,1.67-.07,2.54-.07,4.4,0,8.17.6,11.3,1.8,3.76,1.42,6.6,3.72,8.5,6.87,1.91-3.27,4.78-5.61,8.62-7.02-1.09-1.43-2.35-2.71-3.78-3.84Z"/>
      <path class="st3" d="M-1365.96,793.9v47.31c0,6.03-4.93,11.21-10.95,11.5h0c-.95.06-1.92.08-2.91.08s-1.96-.02-2.91-.08h0c-6.13-.28-10.95-5.33-10.95-11.47v-47.34c0-.99.03-1.96.1-2.9.39-6.25,2.13-11.37,5.21-15.37,3.76,1.42,6.6,3.72,8.5,6.87-1.91,3.25-2.86,7.42-2.86,12.5v45.85c0,1.41,1.13,2.55,2.53,2.57.24,0,.49,0,.74,0h0c1.4,0,2.55-1.15,2.55-2.55v-45.87c0-5.08-.98-9.25-2.96-12.5,1.91-3.27,4.78-5.61,8.62-7.02,3.07,4.01,4.8,9.19,5.19,15.52.07.94.1,1.91.1,2.9Z"/>
    </g>
    <path class="st3" d="M-1336.07,771.64c-6.05-4.79-14.14-7.18-24.28-7.18-7.56,0-14.01,1.39-19.36,4.16-1.71.88-3.3,1.91-4.79,3.08-1.47,1.16-2.76,2.47-3.87,3.93,3.76,1.42,6.6,3.72,8.5,6.87,1.91-3.27,4.78-5.61,8.62-7.02,2.95-1.1,6.46-1.65,10.54-1.65,1.13,0,2.22.04,3.27.12,3.93.29,7.26,1.14,10,2.55,6.32,3.22,9.48,9.39,9.48,18.5v57.79h10.95v-58.89c0-10.05-3.02-17.48-9.06-22.26Z"/>
  </g>
  <g>
    <g>
      <path class="st4" d="M218.42,142.24V53.92h13.84v12.64h.34c2.85-4.44,6.55-8,11.11-10.68,4.55-2.67,9.51-4.01,14.86-4.01,11.5,0,19.19,5.24,23.06,15.72h.34c2.73-4.9,6.55-8.74,11.45-11.53,4.9-2.79,10.08-4.19,15.55-4.19,8.09,0,14.58,2.48,19.48,7.43,4.9,4.96,7.35,11.93,7.35,20.93v62.02h-13.84v-61.33c0-5.35-1.57-9.59-4.7-12.73-3.13-3.13-6.98-4.7-11.53-4.7-5.81,0-10.88,2.28-15.21,6.83-4.33,4.56-6.49,10.2-6.49,16.91v55.01h-13.84v-61.33c0-5.35-1.4-9.59-4.19-12.73-2.79-3.13-6.47-4.7-11.02-4.7-5.7,0-10.91,2.31-15.63,6.92-4.73,4.61-7.09,10.22-7.09,16.83v55.01h-13.84Z"/>
      <path class="st4" d="M423.43,143.1c-8.77,0-13.84-4.38-15.21-13.16h-.17c-7.29,9.34-17.08,14.01-29.39,14.01-8.77,0-15.95-2.11-21.53-6.32-5.58-4.21-8.37-10.31-8.37-18.28,0-4.1.65-7.66,1.96-10.68,1.31-3.02,2.99-5.47,5.04-7.35,2.05-1.88,4.87-3.53,8.46-4.96,3.59-1.42,7.03-2.5,10.34-3.25,3.3-.74,7.52-1.51,12.64-2.31,3.3-.45,5.66-.82,7.09-1.11,1.42-.28,3.27-.74,5.55-1.37,2.28-.62,3.87-1.34,4.78-2.14.91-.8,1.76-1.88,2.56-3.25.79-1.37,1.2-2.96,1.2-4.78,0-5.01-1.74-8.85-5.21-11.53-3.48-2.67-8.34-4.01-14.61-4.01-14.24,0-21.58,6.49-22.04,19.48h-13.33c.23-9,3.33-16.23,9.31-21.7,5.98-5.47,14.61-8.2,25.88-8.2,21.75,0,32.63,9.34,32.63,28.02v42.03c0,3.87.65,6.61,1.96,8.2,1.31,1.6,3.79,1.99,7.43,1.2h.51v10.08c-2.28.91-4.78,1.37-7.52,1.37ZM381.75,133.36c8.54,0,15.15-2.48,19.82-7.43,4.67-4.96,7-10.39,7-16.32v-15.04c-4.21,2.62-10.93,4.78-20.16,6.49-3.42.68-6.09,1.23-8.03,1.62-1.94.4-4.16,1.08-6.66,2.05-2.51.97-4.39,2.02-5.64,3.16-1.25,1.14-2.34,2.65-3.25,4.53-.91,1.88-1.37,4.07-1.37,6.58,0,9.57,6.09,14.35,18.28,14.35Z"/>
      <path class="st4" d="M455.04,53.92v14.69h.34c2.85-4.67,6.55-8.46,11.11-11.36,4.55-2.9,9.62-4.36,15.21-4.36,2.05,0,3.93.34,5.64,1.02v13.33h-.51c-1.71-.57-3.76-.85-6.15-.85-7.06,0-13.1,2.48-18.11,7.43-5.01,4.95-7.52,11.42-7.52,19.39v49.03h-13.84V53.92h13.84Z"/>
      <path class="st4" d="M511.08,171.46c-5.24,0-9.4-.63-12.47-1.88v-12.3h.68c2.28,1.25,5.41,1.88,9.4,1.88,3.08,0,5.64-.77,7.69-2.31,2.05-1.54,3.87-4.36,5.47-8.46l3.42-8.71-34.51-85.77h15.03l20.84,55.01,5.98,17.26h.34c2.05-6.6,3.99-12.36,5.81-17.26l20.16-55.01h14.69l-37.76,95.5c-3.42,8.65-6.95,14.49-10.59,17.51-3.65,3.02-8.37,4.53-14.18,4.53Z"/>
      <path class="st4" d="M615.81,144.81c-12.07,0-21.61-4.19-28.62-12.56-7.01-8.37-10.51-19.67-10.51-33.91s3.64-25.68,10.93-34c7.29-8.31,16.57-12.47,27.85-12.47,11.96,0,21.19,4.84,27.68,14.52h.34V20.09h13.84v122.16h-13.84v-10.76h-.34c-6.95,8.88-16.06,13.33-27.34,13.33ZM616.32,133.19c9.45,0,16.49-3.13,21.1-9.4,4.61-6.26,6.92-14.69,6.92-25.29s-2.48-18.91-7.43-25.29c-4.96-6.38-11.88-9.57-20.76-9.57-8.09,0-14.32,3.22-18.71,9.65-4.38,6.44-6.58,14.84-6.58,25.2s2.19,18.74,6.58,25.12c4.38,6.38,10.68,9.57,18.88,9.57Z"/>
      <path class="st4" d="M744.8,131.31c-7.75,8.88-18.05,13.33-30.92,13.33s-23.21-4.44-31.01-13.33c-7.8-8.88-11.7-19.93-11.7-33.14s3.9-24.26,11.7-33.14c7.8-8.88,18.14-13.33,31.01-13.33s23.18,4.44,30.92,13.33c7.74,8.88,11.62,19.93,11.62,33.14s-3.87,24.26-11.62,33.14ZM692.78,123.19c4.95,6.55,11.99,9.82,21.1,9.82s16.12-3.27,21.01-9.82c4.9-6.55,7.35-14.89,7.35-25.03s-2.48-18.65-7.43-25.2c-4.95-6.55-11.93-9.82-20.93-9.82s-16.15,3.3-21.1,9.91c-4.96,6.61-7.43,14.98-7.43,25.11s2.48,18.48,7.43,25.03Z"/>
      <path class="st4" d="M808.01,144.64c-12.87,0-23.21-4.44-31.01-13.33-7.8-8.88-11.7-19.93-11.7-33.14s3.9-24.26,11.7-33.14c7.8-8.88,18.14-13.33,31.01-13.33,10.36,0,18.85,2.76,25.46,8.29,6.6,5.53,10.7,13.01,12.3,22.47h-14.01c-1.03-6.04-3.59-10.76-7.69-14.18-4.1-3.42-9.46-5.12-16.06-5.12-9.11,0-16.15,3.3-21.1,9.91-4.96,6.61-7.43,14.98-7.43,25.11s2.48,18.48,7.43,25.03c4.95,6.55,11.99,9.82,21.1,9.82,7.06,0,12.7-1.91,16.91-5.72,4.21-3.81,6.6-9.2,7.18-16.15h13.67c-.91,10.59-4.67,18.82-11.28,24.69-6.61,5.87-15.43,8.8-26.48,8.8Z"/>
    </g>
    <circle class="st4" cx="95.77" cy="95.77" r="95.77"/>
    <g>
      <circle class="st3" cx="76.3" cy="47.3" r="16.64"/>
      <circle class="st3" cx="117.91" cy="47.3" r="16.64"/>
      <g>
        <path class="st3" d="M100.57,79.73c-1.44-1.15-3-2.15-4.68-3.02-5.34-2.78-11.87-4.16-19.59-4.16-.99,0-1.96.02-2.91.08-3.98.19-7.64.8-10.95,1.84-3.89,1.2-7.32,2.97-10.29,5.32-6.12,4.83-9.19,12.23-9.19,22.2v58.89h10.95v-57.79c0-8.78,2.84-14.83,8.53-18.15,2.91-1.69,6.56-2.68,10.95-2.95.82-.05,1.67-.07,2.54-.07,4.4,0,8.17.6,11.3,1.8,3.76,1.42,6.6,3.72,8.5,6.87,1.91-3.27,4.78-5.61,8.62-7.02-1.09-1.43-2.35-2.71-3.78-3.84Z"/>
        <path class="st3" d="M109.64,101.99v47.31c0,6.03-4.93,11.21-10.95,11.5h0c-.95.06-1.92.08-2.91.08s-1.96-.02-2.91-.08h0c-6.13-.28-10.95-5.33-10.95-11.47v-47.34c0-.99.03-1.96.1-2.9.39-6.25,2.13-11.37,5.21-15.37,3.76,1.42,6.6,3.72,8.5,6.87-1.91,3.25-2.86,7.42-2.86,12.5v45.85c0,1.41,1.13,2.55,2.53,2.57.24,0,.49,0,.74,0h0c1.4,0,2.55-1.15,2.55-2.55v-45.87c0-5.08-.98-9.25-2.96-12.5,1.91-3.27,4.78-5.61,8.62-7.02,3.07,4.01,4.8,9.19,5.19,15.52.07.94.1,1.91.1,2.9Z"/>
      </g>
      <path class="st3" d="M139.53,79.73c-6.05-4.79-14.14-7.18-24.28-7.18-7.56,0-14.01,1.39-19.36,4.16-1.71.88-3.3,1.91-4.79,3.08-1.47,1.16-2.76,2.47-3.87,3.93,3.76,1.42,6.6,3.72,8.5,6.87,1.91-3.27,4.78-5.61,8.62-7.02,2.95-1.1,6.46-1.65,10.54-1.65,1.13,0,2.22.04,3.27.12,3.93.29,7.26,1.14,10,2.55,6.32,3.22,9.48,9.39,9.48,18.5v57.79h10.95v-58.89c0-10.05-3.02-17.48-9.06-22.26Z"/>
    </g>
  </g>
</svg>